<svg width="29" height="30" viewBox="0 0 29 30" fill="none" xmlns="http://www.w3.org/2000/svg">
<path fill-rule="evenodd" clip-rule="evenodd" d="M10 0.5C4.47715 0.5 0 4.97715 0 10.5V19.5C0 25.0228 4.47715 29.5 10 29.5H19C24.5228 29.5 29 25.0228 29 19.5V10.5C29 4.97715 24.5228 0.5 19 0.5H10ZM16.9411 8.72378C15.379 7.16168 12.8463 7.16168 11.2842 8.72378L8.22375 11.7843C6.66166 13.3463 6.66166 15.879 8.22375 17.4411L11.2842 20.5016C12.8463 22.0637 15.379 22.0637 16.9411 20.5016L20.0016 17.4411C21.5637 15.879 21.5637 13.3463 20.0016 11.7842L16.9411 8.72378Z" fill="#1D1D1D"/>
</svg>
