<svg width="16" height="16" viewBox="0 0 16 16" fill="none" xmlns="http://www.w3.org/2000/svg">
<path d="M7.97826 15.5C7.75261 15.5 7.52696 15.5 7.3013 15.5C3.16435 15.1231 0.155652 11.4296 0.531739 7.28392C0.832608 3.66583 3.69087 0.801508 7.3013 0.5C7.60217 0.5 7.90304 0.650754 8.05348 0.876884C8.20391 1.10302 8.20391 1.4799 7.97826 1.70603C7.22609 2.68593 7.00043 3.89196 7.15087 5.09799C7.3013 6.30402 7.97826 7.3593 8.95609 8.03769C10.5357 9.24372 12.717 9.24372 14.2965 8.03769C14.5222 7.88693 14.823 7.81156 15.1239 7.96231C15.3496 8.11307 15.5 8.41457 15.5 8.71608C15.3496 10.7513 14.3717 12.5603 12.7922 13.8417C11.363 14.897 9.70826 15.5 7.97826 15.5ZM5.87217 2.23367C3.69087 2.98744 2.18652 4.94724 1.96087 7.3593C1.66 10.6759 4.06696 13.6156 7.37652 13.9171C8.95609 14.0678 10.5357 13.6156 11.7391 12.5603C12.5665 11.8819 13.1683 10.9774 13.5443 9.99749C11.6639 10.6759 9.55783 10.3744 7.90304 9.16834C6.62435 8.18844 5.79696 6.83166 5.49609 5.24874C5.42087 4.19347 5.5713 3.21357 5.87217 2.23367Z" fill="white"/>
</svg>
