<svg width="14" height="14" viewBox="0 0 14 14" fill="none" xmlns="http://www.w3.org/2000/svg">
<path fill-rule="evenodd" clip-rule="evenodd" d="M9.23379 7.81003C10.5287 5.85557 10.3151 3.19634 8.59311 1.47434C6.62732 -0.491448 3.44014 -0.491448 1.47434 1.47434C-0.491448 3.44014 -0.491448 6.62732 1.47434 8.59311C3.19634 10.3151 5.85557 10.5287 7.81003 9.23379L12.5762 14L14 12.5762L9.23379 7.81003ZM7.16936 2.8981C8.34883 4.07757 8.34883 5.98988 7.16936 7.16936C5.98988 8.34883 4.07757 8.34883 2.8981 7.16936C1.71862 5.98988 1.71862 4.07757 2.8981 2.8981C4.07757 1.71862 5.98988 1.71862 7.16936 2.8981Z" fill="#0147FF"/>
</svg>
