<svg width="12" height="12" viewBox="0 0 12 12" fill="none" xmlns="http://www.w3.org/2000/svg">
<path fill-rule="evenodd" clip-rule="evenodd" d="M7.86181 6.67503C8.94088 5.04631 8.76292 2.83029 7.32792 1.39529C5.68976 -0.242872 3.03377 -0.242872 1.39561 1.39529C-0.242548 3.03345 -0.242548 5.68943 1.39561 7.32759C2.83061 8.76259 5.04663 8.94056 6.67535 7.86149L10.6472 11.8333L11.8337 10.6469L7.86181 6.67503ZM6.14146 2.58175C7.12435 3.56465 7.12435 5.15824 6.14146 6.14113C5.15856 7.12403 3.56497 7.12403 2.58207 6.14113C1.59918 5.15824 1.59918 3.56465 2.58207 2.58175C3.56497 1.59885 5.15856 1.59885 6.14146 2.58175Z" fill="#1D1D1D"/>
</svg>
