<svg width="16" height="16" viewBox="0 0 16 16" fill="none" xmlns="http://www.w3.org/2000/svg">
<path d="M4.24479 8C4.24479 10.0708 5.92929 11.7552 8.00004 11.7552C10.0708 11.7552 11.7553 10.0708 11.7553 8C11.7553 5.92925 10.0708 4.24475 8.00004 4.24475C5.92929 4.24475 4.24479 5.92925 4.24479 8ZM8.00004 5.74475C9.24354 5.74475 10.2553 6.7565 10.2553 8C10.2553 9.2435 9.24354 10.2552 8.00004 10.2552C6.75654 10.2552 5.74479 9.2435 5.74479 8C5.74479 6.7565 6.75654 5.74475 8.00004 5.74475ZM7.24854 13.25H8.74854V15.5H7.24854V13.25ZM7.24854 0.5H8.74854V2.75H7.24854V0.5ZM0.498535 7.25H2.74854V8.75H0.498535V7.25ZM13.2485 7.25H15.4985V8.75H13.2485V7.25Z" fill="white"/>
<path d="M2.16432 12.7725L3.75484 11.1811L4.81581 12.2414L3.22529 13.8329L2.16432 12.7725Z" fill="white"/>
<path d="M11.1802 3.75769L12.7717 2.16614L13.8324 3.22678L12.2409 4.81833L11.1802 3.75769Z" fill="white"/>
<path d="M3.75634 4.81893L2.16582 3.22747L3.22679 2.16713L4.81731 3.75859L3.75634 4.81893Z" fill="white"/>
<path d="M13.8319 12.7726L12.7712 13.8333L11.1797 12.2418L12.2403 11.1811L13.8319 12.7726Z" fill="white"/>
</svg>
